<?xml version="1.0" encoding="utf-8"?>
<!-- Generator: Adobe Illustrator 16.0.0, SVG Export Plug-In . SVG Version: 6.00 Build 0)  -->
<!DOCTYPE svg PUBLIC "-//W3C//DTD SVG 1.1//EN" "http://www.w3.org/Graphics/SVG/1.1/DTD/svg11.dtd">
<svg version="1.1" id="图层_1" xmlns="http://www.w3.org/2000/svg" xmlns:xlink="http://www.w3.org/1999/xlink" x="0px" y="0px"
	 width="120px" height="50px" viewBox="0 0 120 50" enable-background="new 0 0 120 50" xml:space="preserve">
<g id="XMLID_3_">
	<g>
		<polygon fill="#005A63" points="40.918,11.113 19.913,44.335 17.559,45.098 		"/>
		<polygon fill="#F3EB34" points="40.918,11.113 17.559,45.098 17.116,36.656 17.024,34.892 11.317,37.545 19.858,25.503 
			19.858,35.3 21.555,33.352 		"/>
		<polygon fill="#005A63" points="21.394,26.581 21.555,33.352 19.858,35.3 19.858,25.503 		"/>
		<polygon fill="#005A63" points="19.913,5.675 21.394,8.107 21.292,16.701 19.913,18.662 		"/>
		<polygon fill="#F3EB34" points="19.913,5.675 19.913,18.662 18.705,16.14 17.98,14.626 4.607,28.098 4.598,28.105 1.082,31.648 
			2.056,30.475 		"/>
		<polygon fill="#005A63" points="17.98,14.626 18.705,16.14 4.607,28.098 		"/>
		<polygon fill="#005A63" points="17.024,34.892 17.116,36.656 11.317,37.545 		"/>
	</g>
	<g>
		<polyline fill="none" points="18.705,16.14 17.98,14.626 4.607,28.098 		"/>
		<polyline fill="none" points="4.598,28.105 1.082,31.648 2.056,30.475 19.913,5.675 19.913,18.662 		"/>
		<polyline fill="none" points="17.559,45.098 40.918,11.113 21.555,33.352 19.858,35.3 19.858,25.503 11.317,37.545 17.024,34.892 
			17.116,36.656 		"/>
		<polyline fill="none" points="4.598,28.105 4.607,28.098 18.705,16.14 19.913,18.662 21.292,16.701 21.394,8.107 19.913,5.675 		
			"/>
		<polyline fill="none" points="21.555,33.352 21.394,26.581 19.858,25.503 		"/>
		<polyline fill="none" points="40.918,11.113 19.913,44.335 17.559,45.098 17.116,36.656 11.317,37.545 		"/>
	</g>
</g>
<g>
	<path fill="#F3EB34" d="M44.219,19.874c0.653-6.098,9.145-8.493,9.798-1.089c0.218,3.266-1.742,6.315-3.483,9.145
		c-1.089,1.96-5.879,6.75-5.661,9.146c0.436,5.443,17.854-4.572,21.122-5.443"/>
	<path fill="#0C7594" d="M41.272,19.308c0,0,0.056-0.227,0.16-0.653c0.03-0.206,0.43-1.618,1.03-2.577
		c0.558-1.038,1.53-2.125,2.872-3.046c1.347-0.882,3.204-1.64,5.503-1.303c0.562,0.042,1.145,0.307,1.709,0.521
		c0.276,0.132,0.536,0.317,0.799,0.489c0.263,0.177,0.526,0.354,0.728,0.59c0.216,0.224,0.427,0.456,0.63,0.693
		c0.208,0.236,0.321,0.5,0.479,0.757c0.138,0.259,0.306,0.525,0.404,0.788c0.085,0.263,0.171,0.528,0.257,0.795
		c0.198,0.545,0.238,1.054,0.306,1.578l0.046,0.393l0.022,0.197l0.005,0.049c0-0.039,0.017,0.433,0.009,0.242l-0.001,0.02
		l-0.005,0.078l-0.04,0.628l-0.02,0.317c-0.002,0.093-0.016,0.218-0.045,0.376l-0.157,0.871c-0.099,0.62-0.288,1.05-0.448,1.556
		c-0.707,1.938-1.771,3.59-2.82,5.141l-0.783,1.141l-0.202,0.293l-0.261,0.349c-0.184,0.249-0.323,0.4-0.486,0.604
		c-0.616,0.71-1.234,1.422-1.852,2.135c-0.601,0.694-1.184,1.387-1.71,2.086c-0.515,0.689-0.998,1.423-1.234,2.047
		c-0.027,0.129-0.116,0.31-0.104,0.386l-0.014,0.073l-0.01,0.037l-0.003,0.01c0.002,0.028-0.034-0.224-0.017-0.106l0.006,0.043
		l0.048,0.339c0.004,0.023,0.007,0.067,0.012,0.073l0.011-0.01c0.004-0.007,0.004-0.013,0-0.016
		c-0.025-0.009-0.016,0.008,0.006,0.027c0.001,0.051,0.08,0.085,0.146,0.148c0.401,0.218,1.258,0.26,2.04,0.164
		c1.615-0.186,3.236-0.656,4.741-1.134c1.511-0.483,2.929-1.014,4.233-1.514c2.604-1.04,4.774-1.906,6.292-2.513
		c0.763-0.3,1.369-0.52,1.788-0.654c0.417-0.138,0.647-0.183,0.647-0.183s-0.225,0.067-0.624,0.246
		c-0.4,0.175-0.979,0.452-1.706,0.826c-1.452,0.756-3.527,1.837-6.018,3.134c-1.258,0.633-2.628,1.31-4.122,1.959
		c-1.499,0.643-3.091,1.3-4.933,1.707c-0.93,0.165-1.926,0.381-3.223-0.062c-0.321-0.154-0.664-0.325-0.936-0.644
		c-0.278-0.216-0.534-0.829-0.615-1.105l-0.082-0.333l-0.01-0.042c0.014,0.104-0.026-0.162-0.022-0.148l-0.001-0.033L43.7,37.003
		l-0.002-0.27c-0.014-0.387,0.079-0.644,0.132-0.965c0.31-1.139,0.811-2.006,1.313-2.866c0.513-0.846,1.059-1.643,1.606-2.421
		c0.535-0.758,1.069-1.516,1.602-2.271c0.111-0.172,0.264-0.384,0.339-0.52l0.137-0.223l0.165-0.297l0.667-1.218
		c0.861-1.583,1.6-3.108,1.946-4.519c0.067-0.339,0.188-0.727,0.178-0.967c0.011-0.135,0.027-0.267,0.046-0.397l0.016-0.098
		l-0.006-0.159l-0.012-0.317l-0.023-0.629l-0.003-0.078L51.8,18.77c-0.007-0.204,0.01,0.255,0.006,0.203l-0.007-0.028l-0.028-0.11
		l-0.055-0.219c-0.071-0.288-0.114-0.594-0.241-0.791l-0.14-0.333c-0.048-0.104-0.126-0.154-0.177-0.235
		c-0.061-0.063-0.091-0.174-0.159-0.207c-0.065-0.038-0.12-0.078-0.167-0.125c-0.039-0.064-0.108-0.066-0.161-0.084
		c-0.057-0.014-0.093-0.057-0.148-0.071c-0.135,0.022-0.203-0.07-0.354-0.025c-0.506-0.002-1.199,0.29-1.674,0.721
		c-0.469,0.438-0.836,0.895-0.979,1.337c-0.137,0.23-0.09,0.321-0.143,0.422c-0.018,0.073-0.044,0.033-0.063,0.185
		c-0.019,0.133-0.036,0.254-0.051,0.363c-0.061,0.434-0.093,0.666-0.093,0.666c-0.23,1.643-1.749,2.788-3.392,2.558
		c-1.643-0.23-2.788-1.749-2.558-3.392C41.229,19.508,41.25,19.403,41.272,19.308z"/>
</g>
<g>
	<path fill="#F3EB34" d="M67.518,17.042c2.178-1.089,4.791-1.306,7.186-1.089c5.443,0.653,3.918,2.831,1.307,6.533
		c-1.09,1.959-8.275,9.58-6.098,11.322c1.959,1.307,8.928-2.395,10.887-2.831"/>
	<path fill="#0C7594" d="M66.306,14.298l0.503-0.18c0.186-0.063,0.289-0.111,0.568-0.193c0.475-0.138,1.009-0.311,1.419-0.37
		c0.87-0.177,1.729-0.268,2.569-0.289c0.844-0.034,1.665,0.014,2.476,0.086l0.603,0.074l0.3,0.04l0.15,0.02l0.185,0.023l0.032,0.007
		l0.065,0.014l0.521,0.117c0.168,0.037,0.339,0.073,0.593,0.144c0.459,0.117,0.919,0.256,1.388,0.456
		c0.216,0.075,0.493,0.224,0.751,0.369c0.24,0.119,0.54,0.336,0.822,0.583c0.266,0.193,0.576,0.609,0.806,0.965
		c0.203,0.396,0.408,0.9,0.43,1.311c0.021,0.215,0.032,0.431,0.032,0.644c-0.018,0.179-0.045,0.35-0.074,0.524
		c-0.055,0.376-0.161,0.601-0.256,0.88c-0.203,0.504-0.432,0.905-0.659,1.263c-0.229,0.367-0.46,0.685-0.69,0.996
		c-0.463,0.624-0.921,1.171-1.374,1.731l0.101-0.16c-0.229,0.362-0.423,0.59-0.621,0.839l-0.577,0.675l-1.134,1.268
		c-0.749,0.829-1.483,1.651-2.183,2.489c-0.694,0.836-1.369,1.689-1.911,2.563c-0.269,0.433-0.505,0.879-0.644,1.281
		c-0.057,0.189-0.108,0.388-0.102,0.493c0.003,0.116-0.002,0.144,0.029,0.209l-0.057-0.042c0.102,0.032,0.159,0.13,0.35,0.152
		c0.146,0.058,0.352,0.064,0.553,0.077c0.194,0.029,0.425-0.014,0.638-0.015c0.217-0.006,0.444-0.055,0.668-0.08
		c0.901-0.14,1.818-0.375,2.729-0.634c0.911-0.263,1.819-0.559,2.73-0.854c0.911-0.287,1.821-0.614,2.764-0.797
		c-0.903,0.313-1.748,0.763-2.61,1.177c-0.859,0.421-1.72,0.846-2.602,1.243c-0.883,0.394-1.78,0.769-2.738,1.063
		c-0.245,0.064-0.479,0.15-0.737,0.196c-0.261,0.043-0.499,0.122-0.785,0.132c-0.276,0.023-0.55,0.055-0.872,0.004
		c-0.296,0-0.66-0.147-0.997-0.303L69.4,34.448c-0.407-0.294-0.672-0.797-0.746-1.232c-0.09-0.45-0.038-0.815,0.011-1.172
		c0.126-0.687,0.351-1.27,0.592-1.831c0.489-1.115,1.078-2.118,1.681-3.104c0.605-0.981,1.238-1.932,1.866-2.868l0.923-1.387
		l0.425-0.671c0.124-0.208,0.256-0.437,0.303-0.562l0.102-0.161c0.36-0.604,0.732-1.211,1.04-1.782
		c0.154-0.286,0.303-0.57,0.412-0.828c0.119-0.261,0.201-0.504,0.232-0.67c0-0.063,0.036-0.169,0.002-0.15
		c-0.008-0.002-0.009-0.007-0.008-0.004c-0.018,0.035-0.024,0.075-0.02,0.112c-0.017,0.182,0.176,0.482,0.173,0.5
		c0.004,0.026,0.021,0.026-0.07,0.01c-0.063-0.012-0.097-0.036-0.226-0.053c-0.199-0.049-0.429-0.078-0.667-0.102
		c-0.091-0.017-0.272-0.031-0.456-0.044l-0.533-0.041l-0.066-0.005L74.336,18.4c0.064,0.008-0.15-0.019,0.144,0.018h-0.003h-0.008
		l-0.015,0l-0.116,0.002l-0.231,0.004l-0.462,0.009c-0.609,0.037-1.212,0.089-1.783,0.2c-0.575,0.099-1.123,0.246-1.626,0.432
		c-0.288,0.083-0.413,0.186-0.616,0.261c-0.063,0.017-0.275,0.138-0.417,0.211l-0.473,0.25c-1.468,0.779-3.288,0.221-4.067-1.247
		c-0.778-1.467-0.221-3.288,1.247-4.067C66.032,14.408,66.179,14.345,66.306,14.298z"/>
</g>
<g>
	<path fill="#F3EB34" d="M84.719,17.042c0.654-0.436,8.057-0.871,8.928,0.653c2.395,3.484-7.621,9.364-8.273,12.63
		c3.266,1.741,8.928,0.435,11.758-1.307"/>
	<path fill="#0C7594" d="M83.447,14.325l0.424-0.14c0.276-0.089,0.61-0.17,0.853-0.208c0.249-0.024,0.53-0.06,0.75-0.067
		c0.465-0.027,0.896-0.031,1.327-0.03c0.855,0.005,1.691,0.054,2.539,0.13c0.423,0.038,0.852,0.088,1.285,0.152
		c0.439,0.068,0.868,0.134,1.339,0.247c0.237,0.058,0.451,0.097,0.715,0.183c0.267,0.089,0.473,0.13,0.787,0.269
		c0.294,0.128,0.551,0.218,0.952,0.488l0.267,0.182l0.129,0.095c0.052,0.043,0.118,0.109,0.175,0.166
		c0.235,0.236,0.448,0.507,0.619,0.782l-0.099-0.158c0.335,0.568,0.609,1.244,0.646,1.922c0.048,0.345,0.001,0.645-0.019,0.964
		c-0.055,0.277-0.104,0.588-0.193,0.826c-0.164,0.509-0.378,0.939-0.604,1.31c-0.226,0.381-0.467,0.71-0.712,1.017
		c-0.985,1.214-2.027,2.126-3.056,3.014c-1.029,0.881-2.058,1.705-3.019,2.547c-0.479,0.42-0.939,0.846-1.344,1.279
		c-0.405,0.426-0.737,0.895-0.868,1.223l-0.503-1.063c0.359,0.222,0.75,0.421,1.181,0.572c0.431,0.148,0.886,0.262,1.355,0.343
		c0.941,0.157,1.932,0.191,2.923,0.126c1.98-0.144,3.994-0.581,5.835-1.478c-1.681,1.184-3.646,1.968-5.691,2.453
		c-1.028,0.235-2.091,0.376-3.186,0.372c-0.548-0.005-1.103-0.049-1.664-0.146c-0.562-0.1-1.123-0.271-1.681-0.503
		c-0.386-0.162-0.595-0.568-0.521-0.964l0.019-0.1c0.18-0.963,0.597-1.623,0.991-2.237c0.406-0.608,0.839-1.157,1.275-1.687
		c0.873-1.056,1.767-2.043,2.601-3.031c0.83-0.981,1.627-1.98,2.159-2.93c0.131-0.234,0.244-0.465,0.318-0.671
		c0.086-0.21,0.123-0.395,0.131-0.522c0.01-0.133-0.021-0.189-0.053-0.168c-0.008,0.012-0.048,0.084-0.045,0.089
		c0.367,0.548,1.109,0.694,1.657,0.327c0.548-0.367,0.694-1.109,0.327-1.657s-1.109-0.694-1.657-0.327
		c-0.453,0.304-0.632,0.864-0.472,1.358l0.046,0.141c0.042,0.132,0.127,0.26,0.234,0.354l0.076,0.062l0.005,0.021
		c0.005,0.013,0.012,0.025,0.02,0.035c0.084,0.047-0.029,0.027-0.094,0.019c-0.039-0.015-0.219-0.023-0.321-0.04
		c-0.105-0.019-0.275-0.02-0.415-0.03c-0.284-0.021-0.622-0.018-0.946-0.014c-0.332,0.005-0.67,0.021-1.015,0.045
		c-0.686,0.051-1.386,0.123-2.063,0.23c-0.334,0.055-0.668,0.113-0.964,0.182c-0.163,0.032-0.258,0.072-0.389,0.104
		c0.055,0.001,0.203-0.033,0.292-0.08l0.073-0.04l-0.062,0.031L85.99,19.76l-0.237,0.12c-1.485,0.752-3.3,0.157-4.053-1.329
		c-0.752-1.486-0.157-3.3,1.329-4.052C83.161,14.432,83.312,14.371,83.447,14.325z"/>
</g>
<g>
	<path fill="#F3EB34" d="M71.436,24.228c2.396-0.218,4.574,2.179,5.879,4.138"/>
	<path fill="#0C7594" d="M71.547,21.229c0,0,0.115,0.052,0.317,0.142c0.102,0.045,0.225,0.1,0.365,0.163
		c0.085,0.035,0.113,0.055,0.256,0.109c0.153,0.062,0.314,0.126,0.482,0.194c0.329,0.143,0.672,0.314,1.001,0.508
		c0.268,0.196,0.474,0.406,0.71,0.623c0.24,0.21,0.442,0.443,0.615,0.691c0.178,0.244,0.37,0.479,0.517,0.729
		c0.137,0.249,0.273,0.499,0.408,0.744c0.138,0.237,0.223,0.491,0.324,0.722c0.203,0.461,0.337,0.904,0.453,1.274
		c0.221,0.746,0.318,1.237,0.318,1.237s-0.419-0.294-1.06-0.662c-0.323-0.181-0.69-0.39-1.104-0.559
		c-0.205-0.084-0.401-0.191-0.62-0.25c-0.209-0.064-0.421-0.13-0.633-0.195c-0.208-0.057-0.418-0.069-0.61-0.101
		c-0.193-0.038-0.377-0.044-0.541-0.013c-0.158,0.022-0.324,0.021-0.427,0.062c-0.059,0.084-0.083,0.151-0.092,0.197
		c-0.005,0.023-0.006,0.042-0.005,0.056c-0.013,0.017-0.14,0.053-0.196,0.075c-0.146,0.052-0.271,0.097-0.376,0.134
		c-0.208,0.074-0.327,0.116-0.327,0.116l-0.012,0.004c-1.683,0.597-3.53-0.283-4.128-1.966c-0.597-1.683,0.283-3.531,1.966-4.127
		C69.962,20.848,70.818,20.907,71.547,21.229z"/>
</g>
<g>
	<path fill="#F3EB34" d="M87.549,23.14c2.178,1.088,4.139,3.047,5.227,5.443"/>
	<path fill="#0C7594" d="M89.006,20.517c0,0,0.082,0.1,0.227,0.273c0.071,0.087,0.159,0.192,0.259,0.313
		c0.122,0.142,0.259,0.302,0.408,0.476c0.16,0.192,0.334,0.401,0.518,0.621c0.168,0.219,0.303,0.448,0.459,0.682
		c0.313,0.458,0.57,0.996,0.824,1.501c0.109,0.263,0.219,0.525,0.326,0.784c0.11,0.249,0.178,0.521,0.258,0.764
		c0.166,0.485,0.252,0.962,0.332,1.351c0.083,0.387,0.095,0.728,0.125,0.949c0.021,0.223,0.034,0.351,0.034,0.351
		s-0.097-0.086-0.266-0.237c-0.176-0.145-0.39-0.366-0.7-0.584c-0.307-0.219-0.641-0.474-1.043-0.689
		c-0.199-0.108-0.382-0.233-0.602-0.325c-0.207-0.094-0.419-0.189-0.63-0.285c-0.439-0.157-0.846-0.32-1.255-0.403
		c-0.199-0.043-0.393-0.101-0.561-0.121c-0.159-0.011-0.309-0.021-0.447-0.03c-0.064-0.004-0.127-0.008-0.187-0.012
		c-0.084-0.011-0.164-0.021-0.24-0.032c-0.155-0.021-0.291-0.04-0.402-0.055c-0.224-0.031-0.352-0.048-0.352-0.048
		c-1.763-0.239-2.998-1.862-2.76-3.625c0.239-1.763,1.862-2.998,3.625-2.759C87.788,19.491,88.509,19.919,89.006,20.517z"/>
</g>
<g>
	<path fill="#F3EB34" d="M99.309,17.26c0.869-5.661,7.186,5.661,8.273,5.661"/>
	<path fill="#0C7594" d="M96.37,16.655c0,0,0.021-0.045,0.061-0.13c0.048-0.11,0.08-0.154,0.189-0.424
		c0.147-0.374,0.316-0.802,0.686-1.32l0.137-0.189l0.213-0.242c0.153-0.161,0.301-0.309,0.493-0.46
		c0.459-0.342,1.005-0.606,1.654-0.686c1.264-0.115,1.986,0.368,2.471,0.702c0.484,0.366,0.785,0.732,1.082,1.102
		c0.557,0.735,0.968,1.485,1.355,2.232c0.76,1.489,1.368,2.961,1.869,4.041c0.248,0.539,0.466,0.978,0.646,1.264
		c0.091,0.142,0.172,0.244,0.238,0.306c0.065,0.051,0.117,0.072,0.117,0.072c0.001-0.003-0.047,0.006-0.148-0.012
		c-0.094-0.027-0.228-0.086-0.385-0.179c-0.313-0.185-0.725-0.491-1.203-0.867c-0.955-0.749-2.187-1.795-3.431-2.692
		c-0.617-0.443-1.249-0.857-1.782-1.096c-0.255-0.106-0.506-0.188-0.607-0.147c-0.098,0.018-0.003,0.273,0.678,0.257
		c0.354-0.034,0.665-0.146,0.907-0.33c0.097-0.061,0.168-0.102,0.237-0.169c0.033-0.031,0.064-0.065,0.092-0.1
		c0.021-0.017,0.036-0.019,0.053-0.03c0.123-0.108,0.188-0.132,0.227-0.183c0.021,0.059,0.017,0.281,0.022,0.349
		c0.004,0.094,0.006,0.144,0.006,0.144c0.063,1.704-1.268,3.137-2.972,3.201c-1.705,0.063-3.138-1.268-3.201-2.972
		c-0.019-0.5,0.083-0.978,0.279-1.404L96.37,16.655z"/>
</g>
<g>
	<path fill="#F3EB34" d="M110.848,10.074c4.572,6.315,0.436,18.727-3.484,24.17c-2.176,3.049-7.621,8.274-8.709,1.742
		c-0.436-3.266,3.484-9.146,5.662-4.572"/>
	<path fill="#0C7594" d="M113.412,8.518c0,0,0.089,0.169,0.255,0.486c0.168,0.349,0.395,0.654,0.764,1.657
		c0.151,0.433,0.396,0.981,0.481,1.451c0.099,0.481,0.207,1.002,0.321,1.56c0.05,0.546,0.103,1.127,0.158,1.739
		c0.015,0.603-0.003,1.227-0.009,1.879c-0.045,0.641-0.115,1.301-0.183,1.982c-0.117,0.666-0.216,1.359-0.364,2.054
		c-0.313,1.384-0.692,2.815-1.216,4.237c-1.01,2.857-2.415,5.739-4.267,8.402c-0.95,1.337-2.045,2.563-3.251,3.616
		c-0.608,0.526-1.243,1.022-1.941,1.452c-0.7,0.424-1.46,0.809-2.385,0.963c-0.457,0.074-0.982,0.062-1.479-0.103
		c-0.5-0.161-0.929-0.481-1.232-0.835c-0.58-0.728-0.793-1.489-0.934-2.186c-0.33-1.476,0.047-2.867,0.545-3.949
		c0.507-1.095,1.161-2.002,1.922-2.636c0.73-0.639,1.751-0.935,2.415-0.54c0.301,0.2,0.551,0.384,0.695,0.614
		c0.081,0.104,0.156,0.2,0.226,0.288c0.05,0.1,0.096,0.19,0.136,0.271c0.16,0.321,0.246,0.492,0.246,0.492s-0.105-0.158-0.303-0.456
		c-0.049-0.073-0.104-0.155-0.164-0.246c-0.076-0.076-0.16-0.158-0.25-0.248c-0.161-0.203-0.416-0.335-0.689-0.479
		c-0.59-0.254-1.354,0.076-1.938,0.712c-0.596,0.634-1.093,1.536-1.421,2.564c-0.33,1.022-0.467,2.199-0.071,3.27
		c0.178,0.564,0.453,1.102,0.787,1.412c0.344,0.281,0.647,0.326,1.136,0.192c0.986-0.301,2.074-1.279,2.99-2.296
		c0.938-1.048,1.747-2.224,2.418-3.467c1.336-2.538,2.297-5.327,2.871-7.957c0.308-1.313,0.478-2.593,0.599-3.791
		c0.052-0.599,0.058-1.176,0.09-1.733c-0.018-0.546-0.034-1.073-0.051-1.58c-0.059-0.486-0.115-0.953-0.169-1.396
		c-0.092-0.418-0.179-0.815-0.261-1.188c-0.119-0.342-0.23-0.661-0.334-0.957c-0.095-0.315-0.223-0.418-0.297-0.612
		c-0.071-0.263-0.481-0.807-0.665-1.078c-0.203-0.294-0.312-0.451-0.312-0.451l-0.006-0.008c-0.944-1.365-0.604-3.237,0.762-4.182
		s3.237-0.604,4.183,0.761C113.289,8.299,113.357,8.416,113.412,8.518z"/>
</g>
</svg>
